<svg id="logotipo-contabilidade.svg" xmlns="http://www.w3.org/2000/svg" viewBox="0 0 64.77 64.77"><defs><style>.cls-1{fill:#b9672b;}.cls-2{fill:#fdb53c;}</style></defs><title>icone-ppe</title><rect class="cls-1" width="64.77" height="64.77" rx="4.22" ry="4.22"/><path class="cls-2" d="M45.46,48.31V41.07A16.8,16.8,0,0,0,48,17.5,17,17,0,0,0,35,11.22a15.07,15.07,0,0,0-2,.13A16.77,16.77,0,0,0,18.17,27.82l-3.9,9.42a1.34,1.34,0,0,0,1.12,1.84l2.21.2a1.35,1.35,0,0,1,1.21,1.17l.88,7a1.34,1.34,0,0,0,1.55,1.15l5.46-.91v5.82C39.42,53.06,45.46,48.31,45.46,48.31Z"/></svg>