<svg id="logotipo-contabilidade.svg" xmlns="http://www.w3.org/2000/svg" viewBox="0 0 376 64.77"><defs><style>.cls-1{isolation:isolate;}.cls-2{fill:#fff;}.cls-3{fill:#b9672b;}.cls-4{fill:#ad4b15;}.cls-5{fill:#fdb53c;}</style></defs><title>login-ppe</title><g id="Darwin" class="cls-1"><path class="cls-2" d="M78.44,25.56V3.38l1.64-.76h5.86a7.79,7.79,0,0,1,5.73,2.2,7.3,7.3,0,0,1,2.08,5.4V18a7.3,7.3,0,0,1-2.08,5.39,7.76,7.76,0,0,1-5.73,2.21Zm3.09-2.74h4.41a4.59,4.59,0,0,0,3.61-1.56A4.81,4.81,0,0,0,90.66,18V10.22a4.81,4.81,0,0,0-1.11-3.3,4.59,4.59,0,0,0-3.61-1.56H81.53Z"/><path class="cls-2" d="M110.93,24.8,108,26.16h-.16V24.57a4.38,4.38,0,0,1-3.32,1.29A5.88,5.88,0,0,1,100,24.14a5.71,5.71,0,0,1-1.6-4.05A5.55,5.55,0,0,1,100.14,16a6,6,0,0,1,4.37-1.64,4.8,4.8,0,0,1,3.32,1.29q0-2.68-1-3.54a3.43,3.43,0,0,0-2.36-.82h-3.76V11.1L102,8.54h2.53a6.28,6.28,0,0,1,4.5,1.72,5.84,5.84,0,0,1,1.92,4.36Zm-9.5-4.71a3.14,3.14,0,0,0,.83,2.23,3,3,0,0,0,2.26.85,3.07,3.07,0,0,0,3.28-3.05,2.83,2.83,0,0,0-1-2.22,3.34,3.34,0,0,0-2.3-.85,3,3,0,0,0-3.11,3Z"/><path class="cls-2" d="M115.57,26.16V14.62a5.87,5.87,0,0,1,1.91-4.36A6.29,6.29,0,0,1,122,8.54h2.08V8.7l-1.23,2.55H122a3.54,3.54,0,0,0-2.36.81,3.15,3.15,0,0,0-1,2.56V24.8l-2.94,1.36Z"/><path class="cls-2" d="M149.29,8.24V19.78a5.86,5.86,0,0,1-1.92,4.36,6.24,6.24,0,0,1-4.5,1.72,5.9,5.9,0,0,1-4.26-1.76,4.13,4.13,0,0,1-.61-.79,4.85,4.85,0,0,1-.62.77,6.15,6.15,0,0,1-4.26,1.78,6.31,6.31,0,0,1-4.5-1.72,5.78,5.78,0,0,1-1.92-4.36V9.61l2.94-1.37h.16V19.78a3.16,3.16,0,0,0,1,2.56,3.81,3.81,0,0,0,4.72,0,3.14,3.14,0,0,0,1-2.56V9.61l2.94-1.37h.15V19.78a3.14,3.14,0,0,0,1,2.56,3.81,3.81,0,0,0,4.72,0,3.16,3.16,0,0,0,1-2.56V9.61l2.94-1.37Z"/><path class="cls-2" d="M154.93,5.49a1.79,1.79,0,0,1-.54-1.31,1.79,1.79,0,0,1,.54-1.31,1.85,1.85,0,0,1,2.63,0,1.79,1.79,0,0,1,.54,1.31,1.79,1.79,0,0,1-.54,1.31,1.85,1.85,0,0,1-2.63,0Zm-.23,20.67V9.61l2.94-1.37h.16V24.8l-2.94,1.36Z"/><path class="cls-2" d="M163.21,26.16V14.62a5.88,5.88,0,0,1,1.92-4.36,6.25,6.25,0,0,1,4.5-1.72,6.35,6.35,0,0,1,4.5,1.72,5.81,5.81,0,0,1,1.92,4.36V24.8l-2.94,1.36H173V14.62a3.18,3.18,0,0,0-1-2.56,3.84,3.84,0,0,0-4.72,0,3.18,3.18,0,0,0-1,2.56V24.8l-2.94,1.36Z"/></g><rect class="cls-3" width="64.77" height="64.77" rx="4.22" ry="4.22"/><path class="cls-4" d="M78.77,63.58V34.33Q82.21,34,88.31,34q4.88,0,6.79,1.84T97,42.72c0,3.39-.63,5.7-1.88,6.91s-3.49,1.82-6.68,1.82c-3,0-5.67-.08-7.93-.25V63.58Zm1.74-13.65h7.8c2.6-.06,4.4-.57,5.41-1.55s1.5-2.86,1.5-5.66-.5-4.7-1.5-5.7-2.81-1.51-5.41-1.51q-4.49,0-7.8.09Z"/><path class="cls-4" d="M103.49,63.58V34.33Q106.93,34,113,34q4.88,0,6.78,1.84t1.91,6.89c0,3.39-.63,5.7-1.89,6.91s-3.48,1.82-6.68,1.82q-4.53,0-7.92-.25V63.58Zm1.74-13.65H113c2.6-.06,4.4-.57,5.4-1.55s1.51-2.86,1.51-5.66-.5-4.7-1.51-5.7-2.8-1.51-5.4-1.51q-4.5,0-7.8.09Z"/><path class="cls-4" d="M145,62.09l.09,1.32q-4.08.17-12.47.17a4.66,4.66,0,0,1-3.37-1.25A4.34,4.34,0,0,1,128,59.08V38.82a4.3,4.3,0,0,1,1.29-3.24,4.62,4.62,0,0,1,3.37-1.25q8.4,0,12.47.17L145,35.81H132.91a3.13,3.13,0,0,0-2.33.91,3.27,3.27,0,0,0-.89,2.4v8.14h13.56V48.7H129.69V58.79a3.23,3.23,0,0,0,.89,2.39,3.1,3.1,0,0,0,2.33.91Z"/><path class="cls-5" d="M45.46,48.31V41.07A16.8,16.8,0,0,0,48,17.5,17,17,0,0,0,35,11.22a15.07,15.07,0,0,0-2,.13A16.77,16.77,0,0,0,18.17,27.82l-3.9,9.42a1.34,1.34,0,0,0,1.12,1.84l2.21.2a1.35,1.35,0,0,1,1.21,1.17l.88,7a1.34,1.34,0,0,0,1.55,1.15l5.46-.91v5.82C39.42,53.06,45.46,48.31,45.46,48.31Z"/></svg>