<svg id="logotipo-contabilidade.svg" xmlns="http://www.w3.org/2000/svg" viewBox="0 0 376 64.77"><defs><style>.cls-1{fill:#b9672b;}.cls-2{fill:#ad4b15;}.cls-3{isolation:isolate;}.cls-4{fill:#fff;}.cls-5{fill:#fdb53c;}</style></defs><title>login-ppe</title><rect class="cls-1" width="64.77" height="64.77" rx="4.22" ry="4.22"/><path class="cls-2" d="M78.77,63.58V34.33Q82.21,34,88.31,34q4.88,0,6.79,1.84T97,42.72c0,3.39-.63,5.7-1.88,6.91s-3.49,1.82-6.68,1.82c-3,0-5.67-.08-7.93-.25V63.58Zm1.74-13.65h7.8c2.6-.06,4.4-.57,5.41-1.55s1.5-2.86,1.5-5.66-.5-4.7-1.5-5.7-2.81-1.51-5.41-1.51q-4.49,0-7.8.09Z"/><path class="cls-2" d="M103.49,63.58V34.33Q106.93,34,113,34q4.88,0,6.78,1.84t1.91,6.89c0,3.39-.63,5.7-1.89,6.91s-3.48,1.82-6.68,1.82q-4.53,0-7.92-.25V63.58Zm1.74-13.65H113c2.6-.06,4.4-.57,5.4-1.55s1.51-2.86,1.51-5.66-.5-4.7-1.51-5.7-2.8-1.51-5.4-1.51q-4.5,0-7.8.09Z"/><path class="cls-2" d="M145,62.09l.09,1.32q-4.08.17-12.47.17a4.66,4.66,0,0,1-3.37-1.25A4.34,4.34,0,0,1,128,59.08V38.82a4.3,4.3,0,0,1,1.29-3.24,4.62,4.62,0,0,1,3.37-1.25q8.4,0,12.47.17L145,35.81H132.91a3.13,3.13,0,0,0-2.33.91,3.27,3.27,0,0,0-.89,2.4v8.14h13.56V48.7H129.69V58.79a3.23,3.23,0,0,0,.89,2.39,3.1,3.1,0,0,0,2.33.91Z"/><g class="cls-3"><path class="cls-4" d="M78.44,18.57l2.94-1.37h.15v1.07a4.81,4.81,0,0,0,1.12,3.29,4.92,4.92,0,0,0,7.21,0A4.8,4.8,0,0,0,91,18.27V5.39H82.11V5.23l1.25-2.61h10.7V18.27A7.36,7.36,0,0,1,92,23.66a8.55,8.55,0,0,1-11.45,0A6.84,6.84,0,0,1,78.44,18.57Z"/><path class="cls-4" d="M111.23,24.8l-2.93,1.36h-.16V24.57a4.38,4.38,0,0,1-3.32,1.29,5.88,5.88,0,0,1-4.51-1.72,5.72,5.72,0,0,1-1.61-4.05A5.56,5.56,0,0,1,100.45,16a6,6,0,0,1,4.37-1.64,4.8,4.8,0,0,1,3.32,1.29q0-2.68-1-3.54a3.43,3.43,0,0,0-2.36-.82h-3.76V11.1l1.23-2.56h2.53a6.28,6.28,0,0,1,4.5,1.72,5.87,5.87,0,0,1,1.91,4.36Zm-9.49-4.71a3.14,3.14,0,0,0,.83,2.23,3,3,0,0,0,2.26.85,3.14,3.14,0,0,0,2.35-.86,3.1,3.1,0,0,0,.93-2.19,2.83,2.83,0,0,0-1-2.22,3.34,3.34,0,0,0-2.3-.85,3,3,0,0,0-3.11,3Z"/><path class="cls-4" d="M115.88,26.16V14.62a5.87,5.87,0,0,1,1.91-4.36,6.28,6.28,0,0,1,4.5-1.72h2.09V8.7l-1.23,2.55h-.86a3.53,3.53,0,0,0-2.35.81,3.15,3.15,0,0,0-1,2.56V24.8L116,26.16Z"/><path class="cls-4" d="M130.66,26.16l-6-16.67,2.84-1.25h.16L132,20.68l4.21-12.44h.14l2.46,1.17-5.53,15.43-2.45,1.32Z"/><path class="cls-4" d="M142.34,5.49a1.79,1.79,0,0,1-.54-1.31,1.79,1.79,0,0,1,.54-1.31,1.85,1.85,0,0,1,2.63,0,1.79,1.79,0,0,1,.54,1.31A1.79,1.79,0,0,1,145,5.49a1.85,1.85,0,0,1-2.63,0Zm-.23,20.67V9.61l2.94-1.37h.15V24.8l-2.94,1.36Z"/><path class="cls-4" d="M150.15,20.2l2.94-1.37h.16V20a3.22,3.22,0,0,0,1,2.58,3.41,3.41,0,0,0,2.32.84,3.1,3.1,0,0,0,2.46-1,3.3,3.3,0,0,0,.93-2.24,2.47,2.47,0,0,0-1-2.07,3.86,3.86,0,0,0-2.41-.65,7.13,7.13,0,0,1-4.35-1.19,3.7,3.7,0,0,1-1.41-3.2,4.14,4.14,0,0,1,2-3.5,6.5,6.5,0,0,1,3.8-1.08,5.74,5.74,0,0,1,3.79,1.34,4.29,4.29,0,0,1,1.53,2.43L159,13.68h-.16v-.44a2,2,0,0,0-.46-1.35,2.54,2.54,0,0,0-2.12-.94,2.45,2.45,0,0,0-1.79.67,2.06,2.06,0,0,0-.69,1.5,1.81,1.81,0,0,0,.84,1.55,4,4,0,0,0,2,.32,6.91,6.91,0,0,1,4.72,1.41,5.1,5.1,0,0,1,1.71,4,5.33,5.33,0,0,1-1.78,3.77,6.25,6.25,0,0,1-4.64,1.7,7,7,0,0,1-4.5-1.46A5.08,5.08,0,0,1,150.15,20.2Z"/></g><path class="cls-5" d="M45.46,48.31V41.07A16.8,16.8,0,0,0,48,17.5,17,17,0,0,0,35,11.22a15.07,15.07,0,0,0-2,.13A16.77,16.77,0,0,0,18.17,27.82l-3.9,9.42a1.34,1.34,0,0,0,1.12,1.84l2.21.2a1.35,1.35,0,0,1,1.21,1.17l.88,7a1.34,1.34,0,0,0,1.55,1.15l5.46-.91v5.82C39.42,53.06,45.46,48.31,45.46,48.31Z"/></svg>