<svg id="logotipo-contabilidade.svg" xmlns="http://www.w3.org/2000/svg" viewBox="0 0 299.67 64.77"><defs><style>.cls-1{isolation:isolate;}.cls-2{fill:#f49b31;}.cls-3{fill:#fff;}.cls-4{fill:#b9672b;}.cls-5{fill:#fdb53c;}</style></defs><title>Logo-Produto</title><g id="Contabilidade" class="cls-1"><path class="cls-2" d="M78.14,63.58V34.33Q81.57,34,87.68,34q4.87,0,6.78,1.84t1.91,6.89q0,5.09-1.89,6.91t-6.68,1.82q-4.54,0-7.93-.25V63.58Zm1.74-13.65h7.8q3.9-.08,5.41-1.55t1.5-5.66q0-4.2-1.5-5.7t-5.41-1.5q-4.49,0-7.8.08Z"/><path class="cls-2" d="M122.14,63.58h-1.91l-3-9.2q-1.27-3.69-4.58-3.69-3.14,0-8.1-.13v13h-1.74V34.33q3.43-.34,9.54-.34,4.87,0,6.78,1.74t1.91,6.53q0,3.82-1.25,5.57A5.7,5.7,0,0,1,115.7,50v.21q2.25.64,3.35,4.07ZM104.59,49.12h7.8q3.9-.08,5.41-1.48t1.5-5.34q0-3.94-1.5-5.36t-5.41-1.42q-4.58,0-7.8.08Z"/><path class="cls-2" d="M130,37.19q2.46-3.37,8.56-3.37t8.54,3.35q2.44,3.35,2.44,11.79t-2.44,11.78q-2.44,3.35-8.54,3.35T130,60.72q-2.46-3.37-2.46-11.76T130,37.19Zm15.71,1.19q-2-3-7.14-3t-7.16,3q-2,3-2,10.56t2,10.56q2,3,7.16,3t7.14-3q2-3,2-10.58T145.73,38.38Z"/><path class="cls-2" d="M156.86,63.58V34.33q5.13-.38,9.88-.38,6,0,8.44,3.35T177.59,49q0,8.31-2.42,11.66T166.74,64Q162,64,156.86,63.58Zm1.74-27.94V62.26q3.56.13,8.14.13,5,0,7-3t2-10.47q0-7.5-2-10.47t-7-3Q162.24,35.52,158.6,35.64Z"/><path class="cls-2" d="M204.93,34.33V52.68q0,6.19-2.29,8.8t-7.8,2.61q-5.6,0-7.91-2.61t-2.31-8.8V34.33h1.74V52.68q0,5.43,1.89,7.63t6.55,2.2q4.58,0,6.49-2.2t1.91-7.63V34.33Z"/><path class="cls-2" d="M231.89,35.85H221.8V63.58h-1.74V35.85H210V34.33h21.87Z"/><path class="cls-2" d="M237.41,37.19q2.46-3.37,8.56-3.37t8.54,3.35q2.44,3.35,2.44,11.79t-2.44,11.78q-2.44,3.35-8.54,3.35t-8.56-3.37q-2.46-3.37-2.46-11.76T237.41,37.19Zm15.71,1.19q-2-3-7.14-3t-7.16,3q-2,3-2,10.56t2,10.56q2,3,7.16,3t7.14-3q2-3,2-10.58T253.11,38.38Z"/><path class="cls-2" d="M274.79,50.14l-6.36-1.06A6.34,6.34,0,0,1,264,46.79a9.06,9.06,0,0,1-1.33-5.38,13.63,13.63,0,0,1,.51-4.13A4,4,0,0,1,265,35a7.35,7.35,0,0,1,2.71-1,26.45,26.45,0,0,1,4-.17,67.91,67.91,0,0,1,8.14.59l-.17,1.27q-5.85-.3-7.93-.3-1.53,0-2.33,0a15.25,15.25,0,0,0-1.78.21,3.13,3.13,0,0,0-1.44.55,5.26,5.26,0,0,0-.93,1,3.79,3.79,0,0,0-.61,1.67,17.63,17.63,0,0,0-.15,2.5,7.29,7.29,0,0,0,1,4.3,5,5,0,0,0,3.37,1.72l6.36,1.06a6.55,6.55,0,0,1,4.56,2.27q1.34,1.8,1.34,5.53a12.68,12.68,0,0,1-.55,4.11,4.35,4.35,0,0,1-1.82,2.35,7.39,7.39,0,0,1-2.78,1,27.42,27.42,0,0,1-4,.23,64,64,0,0,1-8.73-.55l.13-1.31q5,.34,8.69.3a24,24,0,0,0,3.43-.25,5.59,5.59,0,0,0,2.18-.85A3.24,3.24,0,0,0,279,59.53a11.56,11.56,0,0,0,.36-3.2q0-3.18-1-4.49A5.26,5.26,0,0,0,274.79,50.14Z"/></g><g id="Darwin" class="cls-1"><path class="cls-3" d="M78.44,25.56V3.38l1.64-.76h5.86a7.73,7.73,0,0,1,5.72,2.2,7.28,7.28,0,0,1,2.09,5.39V18a7.31,7.31,0,0,1-2.09,5.39,7.73,7.73,0,0,1-5.72,2.2Zm3.09-2.73h4.41a4.57,4.57,0,0,0,3.6-1.56A4.79,4.79,0,0,0,90.66,18V10.22a4.79,4.79,0,0,0-1.11-3.3,4.57,4.57,0,0,0-3.6-1.56H81.53Z"/><path class="cls-3" d="M110.93,24.8,108,26.16h-.15V24.57a4.39,4.39,0,0,1-3.33,1.29,5.87,5.87,0,0,1-4.5-1.72,5.73,5.73,0,0,1-1.61-4.06A5.55,5.55,0,0,1,100.14,16a6,6,0,0,1,4.36-1.64,4.79,4.79,0,0,1,3.33,1.29q0-2.69-1-3.54a3.44,3.44,0,0,0-2.37-.82h-3.76V11.1L102,8.55h2.52a6.26,6.26,0,0,1,4.5,1.72,5.84,5.84,0,0,1,1.92,4.36Zm-9.5-4.71a3.11,3.11,0,0,0,.84,2.23,3,3,0,0,0,2.26.85,3.07,3.07,0,0,0,3.28-3.05,2.82,2.82,0,0,0-1-2.22,3.35,3.35,0,0,0-2.3-.85,3,3,0,0,0-2.26.9A3,3,0,0,0,101.43,20.09Z"/><path class="cls-3" d="M115.57,26.16V14.62a5.87,5.87,0,0,1,1.92-4.36A6.25,6.25,0,0,1,122,8.55h2.09V8.7l-1.24,2.55H122a3.54,3.54,0,0,0-2.36.81,3.16,3.16,0,0,0-1,2.56V24.8l-2.94,1.37Z"/><path class="cls-3" d="M149.29,8.24V19.79a5.87,5.87,0,0,1-1.92,4.36,6.25,6.25,0,0,1-4.5,1.72,5.86,5.86,0,0,1-4.25-1.76,4.09,4.09,0,0,1-.62-.79,4.27,4.27,0,0,1-.62.77,6.16,6.16,0,0,1-4.25,1.78,6.32,6.32,0,0,1-4.5-1.72,5.8,5.8,0,0,1-1.92-4.36V9.61l2.94-1.37h.15V19.79a3.16,3.16,0,0,0,1,2.56,3.83,3.83,0,0,0,4.72,0,3.16,3.16,0,0,0,1-2.56V9.61l2.94-1.37h.15V19.79a3.16,3.16,0,0,0,1,2.56,3.83,3.83,0,0,0,4.72,0,3.16,3.16,0,0,0,1-2.56V9.61l2.94-1.37Z"/><path class="cls-3" d="M154.93,5.49a1.8,1.8,0,0,1-.54-1.31,1.8,1.8,0,0,1,.54-1.31,1.86,1.86,0,0,1,2.63,0,1.8,1.8,0,0,1,.54,1.31,1.8,1.8,0,0,1-.54,1.31,1.85,1.85,0,0,1-2.63,0Zm-.23,20.67V9.61l2.94-1.37h.15V24.8l-2.94,1.37Z"/><path class="cls-3" d="M163.21,26.16V14.62a5.87,5.87,0,0,1,1.92-4.36,6.25,6.25,0,0,1,4.5-1.72,6.32,6.32,0,0,1,4.5,1.72A5.81,5.81,0,0,1,176,14.62V24.8l-2.94,1.37H173V14.62a3.16,3.16,0,0,0-1-2.56,3.83,3.83,0,0,0-4.72,0,3.16,3.16,0,0,0-1,2.56V24.8l-2.94,1.37Z"/></g><rect class="cls-4" y="0.26" width="64.51" height="64.51" rx="4.21" ry="4.21"/><path class="cls-5" d="M54.27,45.36a3.06,3.06,0,0,1-1.44,2.69l-9.06,5.29a2.18,2.18,0,0,1-2.31,0L32.4,48.05a.32.32,0,0,1-.14-.09.32.32,0,0,1-.14.09L23,53.34a2.18,2.18,0,0,1-2.31,0l-9.06-5.29a3.06,3.06,0,0,1-1.44-2.69V35.53a3.12,3.12,0,0,1,1.58-2.79l8.78-4.39V18.91a3.12,3.12,0,0,1,1.58-2.79l9.06-4.53a2.28,2.28,0,0,1,2,0l9.06,4.53a3.12,3.12,0,0,1,1.58,2.79v9.45l8.78,4.39a3.08,3.08,0,0,1,1.58,2.79ZM30.07,35.09,21.9,31l-8.17,4.09,8.17,4.09ZM31,45.36V37.94l-7.77,3.87v8.08ZM41.18,18.84l-8.92-4.46-8.92,4.46,8.92,4.46Zm.14,9.52V22.07l-7.77,3.87v6.31Zm9.47,6.73L42.61,31l-8.17,4.09,8.17,4.09Zm.89,10.27V37.94l-7.77,3.87v8.08Z"/></svg>