<svg class="logotipo-dgr" xmlns="http://www.w3.org/2000/svg" viewBox="0 0 126.3 34.3">
	<path class="shape1" fill="#ffffff" d="M0,13.3V.6L.9.2H4.2A4.3,4.3,0,0,1,7.5,1.4,4.2,4.2,0,0,1,8.7,4.5V8.9A4.2,4.2,0,0,1,7.5,12a4.3,4.3,0,0,1-3.2,1.3Zm1.7-1.6H4.2a2.6,2.6,0,0,0,2-.9,2.8,2.8,0,0,0,.6-1.9V4.5a2.8,2.8,0,0,0-.6-1.9,2.6,2.6,0,0,0-2-.9H1.7Zm15.9,1.1-1.7.8h-.1v-.9a2.5,2.5,0,0,1-1.9.7,3.2,3.2,0,0,1-3.5-3.3,3.2,3.2,0,0,1,1-2.4A3.4,3.4,0,0,1,14,6.9a2.7,2.7,0,0,1,1.9.7,2.7,2.7,0,0,0-.5-2A1.9,1.9,0,0,0,14,5.1H11.9l.7-1.5H14a3.5,3.5,0,0,1,2.5,1A3.3,3.3,0,0,1,17.6,7Zm-5.4-2.7a1.8,1.8,0,0,0,.5,1.3,1.7,1.7,0,0,0,1.3.5,1.7,1.7,0,0,0,1.3-.5,1.8,1.8,0,0,0,.5-1.2,1.6,1.6,0,0,0-.5-1.3A1.9,1.9,0,0,0,14,8.4a1.7,1.7,0,0,0-1.3.5A1.7,1.7,0,0,0,12.3,10.1Zm7.3,3.5V7a3.4,3.4,0,0,1,1.1-2.5,3.5,3.5,0,0,1,2.5-1h1.2l-.7,1.5h-.5a2,2,0,0,0-1.3.5A1.8,1.8,0,0,0,21.3,7v5.8l-1.7.8ZM37.9,3.4V10a3.4,3.4,0,0,1-1.1,2.5,3.5,3.5,0,0,1-2.5,1,3.3,3.3,0,0,1-2.4-1l-.3-.5-.3.4a3.5,3.5,0,0,1-2.4,1,3.5,3.5,0,0,1-2.5-1A3.3,3.3,0,0,1,25.1,10V4.2l1.7-.8h.1V10a1.8,1.8,0,0,0,.5,1.5,2.1,2.1,0,0,0,2.7,0,1.8,1.8,0,0,0,.5-1.5V4.2l1.7-.8h.1V10a1.8,1.8,0,0,0,.5,1.5,2.1,2.1,0,0,0,2.7,0,1.8,1.8,0,0,0,.5-1.5V4.2l1.7-.8Zm2.5-1.6a1,1,0,0,1-.3-.8,1,1,0,0,1,.3-.8,1,1,0,0,1,1.5,0,1,1,0,0,1,.3.8,1,1,0,0,1-.3.8,1,1,0,0,1-1.5,0Zm-.1,11.8V4.2l1.7-.8H42v9.5l-1.7.8Zm4.1,0V7a3.4,3.4,0,0,1,1.1-2.5,3.5,3.5,0,0,1,2.5-1,3.6,3.6,0,0,1,2.5,1A3.3,3.3,0,0,1,51.6,7v5.8l-1.7.8h-.1V7a1.8,1.8,0,0,0-.5-1.5,2.1,2.1,0,0,0-2.7,0A1.8,1.8,0,0,0,46.1,7v5.8l-1.7.8Z"/>
	<path class="shape2" fill="#0099ff" d="M0,34V17.7l5.2-.2a5.2,5.2,0,0,1,3.7,1q1,1,1,3.8t-1,3.8-3.7,1H.6v7Zm.6-7.4H5.2a4.7,4.7,0,0,0,3.2-.9q.9-.9.9-3.3t-.9-3.4a4.5,4.5,0,0,0-3.2-.9H.6Zm14.2-7.3q1.3-1.9,4.7-1.9t4.7,1.9q1.3,1.9,1.3,6.5t-1.3,6.5q-1.3,1.9-4.7,1.9t-4.7-1.9q-1.3-1.9-1.3-6.5T14.8,19.3Zm8.9.4Q22.5,18,19.5,18t-4.2,1.7q-1.2,1.7-1.2,6.1T15.3,32q1.2,1.7,4.2,1.7T23.7,32q1.2-1.7,1.2-6.1T23.7,19.7Zm-1.4-6.4-3.6,3.3-.3-.3,3.5-3.4ZM36,26.3l-3.6-.5a3.3,3.3,0,0,1-2.4-1.2,5,5,0,0,1-.7-3,7.9,7.9,0,0,1,.3-2.3,2.2,2.2,0,0,1,1-1.3,3.9,3.9,0,0,1,1.5-.5h2.2l4.4.3v.4L34.1,18H31.7l-.9.3-.5.6a2.5,2.5,0,0,0-.4,1,10.1,10.1,0,0,0-.1,1.5,4.5,4.5,0,0,0,.6,2.6,2.8,2.8,0,0,0,2,1l3.6.5a3.6,3.6,0,0,1,2.5,1.2,5.1,5.1,0,0,1,.7,3.1,7.2,7.2,0,0,1-.2,1.9,3.6,3.6,0,0,1-.6,1.3,2.2,2.2,0,0,1-1,.7l-1.3.3H34.3L29.5,34v-.4l4.8.2h2a3.1,3.1,0,0,0,1.3-.5,2,2,0,0,0,.8-1.1,6.8,6.8,0,0,0,.2-1.9,4.6,4.6,0,0,0-.6-2.7A2.9,2.9,0,0,0,36,26.3Zm14.5,2H43.1v-.5h7.3ZM65.6,17.7,60,33.8l-.3.2h-1l-.3-.2L52.8,17.7h.6l4.8,14,.6,1.7h.7l.6-1.8,4.8-14ZM78.2,33.5v.4H71.3a2.3,2.3,0,0,1-2.4-2.4V20.1a2.3,2.3,0,0,1,2.4-2.4h6.9v.4H71.4a1.9,1.9,0,0,0-1.9,1.9V25h7.7v.5H69.5v6a1.9,1.9,0,0,0,1.9,1.9ZM93.8,17.7V33.6a.3.3,0,0,1-.4.4h-1a.5.5,0,0,1-.4-.3L84.4,19.8,84,19l-.4-.8H83V34h-.6V18.1a.3.3,0,0,1,.4-.4h.9a.4.4,0,0,1,.4.3l7.4,13.6,1,1.9h.7V17.7ZM99,34V17.7l5.4-.2q3.3,0,4.6,1.9t1.3,6.5q0,4.6-1.3,6.5t-4.6,1.9Zm.6-15.9V33.6h4.8q3,0,4.1-1.7t1.2-6.1q0-4.3-1.2-6.1T104.4,18ZM123.5,28h-7.8L113.6,34h-.6l5.9-16.1a.3.3,0,0,1,.3-.2h1a.3.3,0,0,1,.3.2L126.3,34h-.6Zm-.2-.5-2.9-8-.5-1.3h-.7l-.5,1.3-2.9,8Z"/>
</svg>