<?xml version="1.0" encoding="utf-8"?>
<!-- Generator: Adobe Illustrator 22.0.1, SVG Export Plug-In . SVG Version: 6.00 Build 0)  -->
<svg version="1.1" id="logotipo-contabilidade.svg" xmlns="http://www.w3.org/2000/svg" xmlns:xlink="http://www.w3.org/1999/xlink"
	 x="0px" y="0px" viewBox="0 0 112.8 64.8" style="enable-background:new 0 0 112.8 64.8;" xml:space="preserve">
<style type="text/css">
	.st0{fill:#999999;}
	.st1{fill:#AD4B15;}
</style>
<title>Logo-Contabilidade-v2</title>
<g>
	<g>
		<path class="st0" d="M5.2,25.6V3.4l1.6-0.8h5.9c2.1-0.1,4.2,0.7,5.7,2.2c1.4,1.4,2.2,3.4,2.1,5.4V18c0.1,2-0.7,4-2.1,5.4
			c-1.5,1.5-3.6,2.3-5.7,2.2L5.2,25.6z M8.3,22.8h4.4c1.4,0,2.7-0.5,3.6-1.6c0.8-0.9,1.2-2.1,1.1-3.3v-7.8c0.1-1.2-0.3-2.4-1.1-3.3
			c-0.9-1-2.2-1.6-3.6-1.6H8.3V22.8z"/>
	</g>
	<g>
		<path class="st0" d="M37.7,24.8l-2.9,1.4h-0.2v-1.6c-0.9,0.9-2.1,1.3-3.3,1.3c-1.7,0.1-3.3-0.5-4.5-1.7c-1.1-1.1-1.6-2.5-1.6-4
			c0-1.5,0.6-3,1.8-4.1c1.2-1.1,2.8-1.7,4.4-1.6c1.2,0,2.4,0.5,3.3,1.3c0-1.8-0.3-3-1-3.5c-0.7-0.6-1.5-0.9-2.4-0.8h-3.8v-0.2
			l1.3-2.6h2.5c1.7,0,3.3,0.6,4.5,1.7c1.2,1.1,1.9,2.7,1.9,4.4L37.7,24.8z M28.2,20.1c0,0.8,0.3,1.6,0.8,2.2
			c0.6,0.6,1.4,0.9,2.3,0.9c0.9,0.1,1.7-0.3,2.3-0.9c0.6-0.6,0.9-1.4,0.9-2.2c0-0.9-0.3-1.7-1-2.2c-0.6-0.6-1.5-0.9-2.3-0.9
			c-1.7-0.1-3,1.2-3.1,2.9C28.2,20,28.2,20,28.2,20.1L28.2,20.1z"/>
	</g>
	<g>
		<path class="st0" d="M42.3,26.2V14.6c0-1.7,0.7-3.2,1.9-4.4c1.2-1.2,2.8-1.8,4.5-1.7h2.1v0.2l-1.2,2.6h-0.9
			c-0.9,0-1.7,0.3-2.3,0.8c-0.7,0.7-1.1,1.6-1,2.6v10.2l-2.9,1.4H42.3z"/>
	</g>
	<g>
		<path class="st0" d="M76.1,8.2v11.5c0,1.7-0.7,3.2-1.9,4.4c-1.2,1.2-2.8,1.8-4.5,1.7c-1.6,0-3.1-0.6-4.3-1.8
			c-0.2-0.2-0.4-0.5-0.6-0.8c-0.2,0.3-0.4,0.5-0.6,0.8c-1.1,1.1-2.7,1.8-4.3,1.8c-1.7,0-3.3-0.6-4.5-1.7c-1.2-1.1-1.9-2.7-1.9-4.4
			V9.6l2.9-1.4h0.2v11.5c-0.1,1,0.3,1.9,1,2.6c1.4,1.1,3.3,1.1,4.7,0c0.7-0.7,1.1-1.6,1-2.6V9.6l2.9-1.4h0.1v11.5
			c-0.1,1,0.3,1.9,1,2.6c1.4,1.1,3.3,1.1,4.7,0c0.7-0.7,1.1-1.6,1-2.6V9.6L76.1,8.2L76.1,8.2z"/>
	</g>
	<g>
		<path class="st0" d="M81.7,5.5c-0.4-0.3-0.5-0.8-0.5-1.3c0-0.5,0.2-1,0.5-1.3c0.7-0.7,1.9-0.7,2.6,0c0.4,0.3,0.5,0.8,0.5,1.3
			c0,0.5-0.2,1-0.5,1.3C83.6,6.2,82.4,6.2,81.7,5.5C81.7,5.5,81.7,5.5,81.7,5.5z M81.5,26.2V9.6l2.9-1.4h0.2v16.6l-2.9,1.4H81.5z"/>
	</g>
	<g>
		<path class="st0" d="M90,26.2V14.6c0-1.7,0.7-3.2,1.9-4.4c1.2-1.2,2.8-1.8,4.5-1.7c1.7,0,3.3,0.6,4.5,1.7c1.2,1.1,1.9,2.7,1.9,4.4
			v10.2l-2.9,1.4h-0.1V14.6c0.1-1-0.3-1.9-1-2.6c-1.4-1.1-3.3-1.1-4.7,0c-0.7,0.7-1.1,1.6-1,2.6v10.2l-2.9,1.4H90z"/>
	</g>
</g>
<g id="Contabilidade_12_">
	<path class="st1" d="M4.5,64.1V34.9c2.3-0.2,5.5-0.3,9.5-0.3c3.2,0,5.5,0.6,6.8,1.8c1.3,1.2,1.9,3.5,1.9,6.9c0,3.4-0.6,5.7-1.9,6.9
		c-1.3,1.2-3.5,1.8-6.7,1.8c-3,0-5.7-0.1-7.9-0.3v12.4H4.5z M6.3,50.5h7.8c2.6-0.1,4.4-0.6,5.4-1.5c1-1,1.5-2.9,1.5-5.7
		s-0.5-4.7-1.5-5.7c-1-1-2.8-1.5-5.4-1.5c-3,0-5.6,0-7.8,0.1V50.5z"/>
	<path class="st1" d="M29.2,64.1V34.9c2.3-0.2,5.5-0.3,9.5-0.3c3.2,0,5.5,0.6,6.8,1.8c1.3,1.2,1.9,3.5,1.9,6.9
		c0,3.4-0.6,5.7-1.9,6.9c-1.3,1.2-3.5,1.8-6.7,1.8c-3,0-5.7-0.1-7.9-0.3v12.4H29.2z M31,50.5h7.8c2.6-0.1,4.4-0.6,5.4-1.5
		c1-1,1.5-2.9,1.5-5.7s-0.5-4.7-1.5-5.7c-1-1-2.8-1.5-5.4-1.5c-3,0-5.6,0-7.8,0.1V50.5z"/>
	<path class="st1" d="M70.7,62.6l0.1,1.3c-2.7,0.1-6.9,0.2-12.5,0.2c-1.4,0-2.5-0.4-3.4-1.3c-0.9-0.8-1.3-1.9-1.3-3.2V39.4
		c0-1.3,0.4-2.4,1.3-3.2c0.9-0.8,2-1.3,3.4-1.3c5.6,0,9.8,0.1,12.5,0.2l-0.1,1.3H58.7c-1,0-1.7,0.3-2.3,0.9
		c-0.6,0.6-0.9,1.4-0.9,2.4v8.1H69v1.4H55.4v10.1c0,1,0.3,1.8,0.9,2.4c0.6,0.6,1.4,0.9,2.3,0.9H70.7z"/>
</g>
</svg>
