<svg id="logotipo-contabilidade.svg" xmlns="http://www.w3.org/2000/svg" viewBox="0 0 209.12 64.77"><defs><style>.cls-1{isolation:isolate;}.cls-2{fill:#f49b31;}.cls-3{fill:#fff;}</style></defs><title>Tipo-Produto</title><g id="Contabilidade" class="cls-1"><path class="cls-2" d="M3.5,63.58V34.33Q6.93,34,13,34q4.87,0,6.78,1.84t1.91,6.89q0,5.09-1.89,6.91t-6.68,1.82q-4.54,0-7.93-.25V63.58ZM5.23,49.93H13q3.9-.08,5.41-1.55t1.5-5.66q0-4.2-1.5-5.7T13,35.52q-4.49,0-7.8.08Z"/><path class="cls-2" d="M47.5,63.58H45.59l-3-9.2Q41.35,50.69,38,50.69q-3.14,0-8.1-.13v13H28.21V34.33Q31.64,34,37.75,34q4.87,0,6.78,1.74t1.91,6.53q0,3.82-1.25,5.57A5.7,5.7,0,0,1,41.05,50v.21q2.25.64,3.35,4.07ZM29.95,49.12h7.8q3.9-.08,5.41-1.48t1.5-5.34q0-3.94-1.5-5.36t-5.41-1.42q-4.58,0-7.8.08Z"/><path class="cls-2" d="M55.38,37.19q2.46-3.37,8.56-3.37t8.54,3.35Q74.92,40.52,74.92,49T72.49,60.74Q70,64.09,63.95,64.09t-8.56-3.37Q52.92,57.35,52.92,49T55.38,37.19Zm15.71,1.19q-2-3-7.14-3t-7.16,3q-2,3-2,10.56t2,10.56q2,3,7.16,3t7.14-3q2-3,2-10.58T71.09,38.38Z"/><path class="cls-2" d="M82.22,63.58V34.33q5.13-.38,9.88-.38,6,0,8.44,3.35T102.94,49q0,8.31-2.42,11.66T92.09,64Q87.39,64,82.22,63.58ZM84,35.64V62.26q3.56.13,8.14.13,5,0,7-3t2-10.47q0-7.5-2-10.47t-7-3Q87.6,35.52,84,35.64Z"/><path class="cls-2" d="M130.29,34.33V52.68q0,6.19-2.29,8.8t-7.8,2.61q-5.6,0-7.91-2.61T110,52.68V34.33h1.74V52.68q0,5.43,1.89,7.63t6.55,2.2q4.58,0,6.49-2.2t1.91-7.63V34.33Z"/><path class="cls-2" d="M157.25,35.85H147.16V63.58h-1.74V35.85h-10V34.33h21.88Z"/><path class="cls-2" d="M162.76,37.19q2.46-3.37,8.56-3.37t8.54,3.35Q182.3,40.52,182.3,49t-2.44,11.78q-2.44,3.35-8.54,3.35t-8.56-3.37Q160.3,57.35,160.3,49T162.76,37.19Zm15.71,1.19q-2-3-7.14-3t-7.16,3q-2,3-2,10.56t2,10.56q2,3,7.16,3t7.14-3q2-3,2-10.58T178.47,38.38Z"/><path class="cls-2" d="M200.15,50.14l-6.36-1.06a6.34,6.34,0,0,1-4.39-2.29,9.06,9.06,0,0,1-1.33-5.38,13.63,13.63,0,0,1,.51-4.13A4,4,0,0,1,190.34,35,7.35,7.35,0,0,1,193,34a26.45,26.45,0,0,1,4-.17,67.91,67.91,0,0,1,8.14.59L205,35.73q-5.85-.3-7.93-.3-1.53,0-2.33,0a15.25,15.25,0,0,0-1.78.21,3.13,3.13,0,0,0-1.44.55,5.26,5.26,0,0,0-.93,1,3.79,3.79,0,0,0-.62,1.67,17.63,17.63,0,0,0-.15,2.5,7.29,7.29,0,0,0,1,4.3,5,5,0,0,0,3.37,1.72l6.36,1.06a6.55,6.55,0,0,1,4.56,2.27q1.34,1.8,1.34,5.53a12.67,12.67,0,0,1-.55,4.11,4.34,4.34,0,0,1-1.82,2.35,7.39,7.39,0,0,1-2.78,1,27.41,27.41,0,0,1-4,.23,64,64,0,0,1-8.73-.55l.13-1.31q5,.34,8.69.3a24,24,0,0,0,3.43-.25,5.59,5.59,0,0,0,2.18-.85,3.25,3.25,0,0,0,1.31-1.84,11.58,11.58,0,0,0,.36-3.2q0-3.18-1-4.49A5.26,5.26,0,0,0,200.15,50.14Z"/></g><g id="Darwin" class="cls-1"><path class="cls-3" d="M3.8,25.56V3.38l1.64-.76H11.3A7.73,7.73,0,0,1,17,4.82a7.28,7.28,0,0,1,2.09,5.39V18A7.31,7.31,0,0,1,17,23.35a7.73,7.73,0,0,1-5.72,2.2Zm3.09-2.73H11.3a4.57,4.57,0,0,0,3.6-1.56A4.79,4.79,0,0,0,16,18V10.22a4.79,4.79,0,0,0-1.11-3.3,4.57,4.57,0,0,0-3.6-1.56H6.89Z"/><path class="cls-3" d="M36.28,24.8l-2.94,1.37h-.15V24.57a4.39,4.39,0,0,1-3.33,1.29,5.87,5.87,0,0,1-4.5-1.72,5.73,5.73,0,0,1-1.61-4.06A5.55,5.55,0,0,1,25.5,16a6,6,0,0,1,4.36-1.64,4.79,4.79,0,0,1,3.33,1.29q0-2.69-1-3.54a3.44,3.44,0,0,0-2.37-.82H26.1V11.1l1.24-2.55h2.52a6.26,6.26,0,0,1,4.5,1.72,5.84,5.84,0,0,1,1.92,4.36Zm-9.5-4.71a3.11,3.11,0,0,0,.84,2.23,3,3,0,0,0,2.26.85,3.07,3.07,0,0,0,3.28-3.05,2.82,2.82,0,0,0-1-2.22,3.35,3.35,0,0,0-2.3-.85,3,3,0,0,0-2.26.9A3,3,0,0,0,26.78,20.09Z"/><path class="cls-3" d="M40.92,26.16V14.62a5.87,5.87,0,0,1,1.92-4.36,6.25,6.25,0,0,1,4.5-1.72h2.09V8.7l-1.24,2.55h-.85a3.54,3.54,0,0,0-2.36.81,3.16,3.16,0,0,0-1,2.56V24.8l-2.94,1.37Z"/><path class="cls-3" d="M74.64,8.24V19.79a5.87,5.87,0,0,1-1.92,4.36,6.25,6.25,0,0,1-4.5,1.72A5.86,5.86,0,0,1,64,24.1a4.09,4.09,0,0,1-.62-.79,4.27,4.27,0,0,1-.62.77,6.16,6.16,0,0,1-4.25,1.78A6.32,6.32,0,0,1,54,24.14a5.8,5.8,0,0,1-1.92-4.36V9.61L55,8.24h.15V19.79a3.16,3.16,0,0,0,1,2.56,3.83,3.83,0,0,0,4.72,0,3.16,3.16,0,0,0,1-2.56V9.61l2.94-1.37h.15V19.79a3.16,3.16,0,0,0,1,2.56,3.83,3.83,0,0,0,4.72,0,3.16,3.16,0,0,0,1-2.56V9.61l2.94-1.37Z"/><path class="cls-3" d="M80.29,5.49a1.8,1.8,0,0,1-.54-1.31,1.8,1.8,0,0,1,.54-1.31,1.86,1.86,0,0,1,2.63,0,1.8,1.8,0,0,1,.54,1.31,1.8,1.8,0,0,1-.54,1.31,1.85,1.85,0,0,1-2.63,0Zm-.23,20.67V9.61L83,8.24h.15V24.8l-2.94,1.37Z"/><path class="cls-3" d="M88.56,26.16V14.62a5.87,5.87,0,0,1,1.92-4.36A6.25,6.25,0,0,1,95,8.55a6.32,6.32,0,0,1,4.5,1.72,5.81,5.81,0,0,1,1.92,4.36V24.8l-2.94,1.37h-.15V14.62a3.16,3.16,0,0,0-1-2.56,3.83,3.83,0,0,0-4.72,0,3.16,3.16,0,0,0-1,2.56V24.8l-2.94,1.37Z"/></g></svg>