<svg id="logotipo-contabilidade.svg" xmlns="http://www.w3.org/2000/svg" viewBox="0 0 113.18 64.77"><defs><style>.cls-1{fill:#ad4b15;}.cls-2{isolation:isolate;}.cls-3{fill:#fff;}</style></defs><title>tipo-ppe</title><g id="Contabilidade"><path class="cls-1" d="M3.5,63.58V34.33Q6.92,34,13,34q4.88,0,6.79,1.84t1.9,6.89c0,3.39-.63,5.7-1.88,6.91s-3.49,1.82-6.68,1.82c-3,0-5.67-.08-7.93-.25V63.58ZM5.23,49.93H13c2.6-.06,4.41-.57,5.41-1.55s1.5-2.86,1.5-5.66-.5-4.7-1.5-5.7S15.63,35.51,13,35.51q-4.49,0-7.8.09Z"/><path class="cls-1" d="M28.21,63.58V34.33Q31.65,34,37.75,34q4.88,0,6.78,1.84t1.91,6.89c0,3.39-.63,5.7-1.89,6.91s-3.48,1.82-6.67,1.82q-4.55,0-7.93-.25V63.58ZM30,49.93h7.8c2.6-.06,4.4-.57,5.4-1.55s1.51-2.86,1.51-5.66-.5-4.7-1.51-5.7-2.8-1.51-5.4-1.51q-4.5,0-7.8.09Z"/><path class="cls-1" d="M69.71,62.09l.09,1.32q-4.08.17-12.47.17A4.66,4.66,0,0,1,54,62.33a4.34,4.34,0,0,1-1.29-3.25V38.82A4.3,4.3,0,0,1,54,35.58a4.62,4.62,0,0,1,3.37-1.25q8.4,0,12.47.17l-.09,1.31H57.63a3.13,3.13,0,0,0-2.33.91,3.27,3.27,0,0,0-.89,2.4v8.14H68V48.7H54.41V58.79a3.23,3.23,0,0,0,.89,2.39,3.1,3.1,0,0,0,2.33.91Z"/></g><g class="cls-2"><path class="cls-3" d="M3.8,18.57,6.73,17.2h.16v1.07A4.8,4.8,0,0,0,8,21.56a4.59,4.59,0,0,0,3.61,1.57,4.59,4.59,0,0,0,3.6-1.57,4.81,4.81,0,0,0,1.12-3.29V5.39H7.46V5.23L8.71,2.62H19.42V18.27a7.37,7.37,0,0,1-2.09,5.39,7.71,7.71,0,0,1-5.72,2.2,7.84,7.84,0,0,1-5.73-2.2A6.83,6.83,0,0,1,3.8,18.57Z"/><path class="cls-3" d="M36.59,24.8l-2.94,1.36H33.5V24.57a4.41,4.41,0,0,1-3.33,1.29,5.84,5.84,0,0,1-4.5-1.72,5.72,5.72,0,0,1-1.61-4.05A5.52,5.52,0,0,1,25.81,16a6,6,0,0,1,4.36-1.64,4.81,4.81,0,0,1,3.33,1.29q0-2.68-1-3.54a3.44,3.44,0,0,0-2.37-.82H26.41V11.1l1.24-2.56h2.52a6.28,6.28,0,0,1,4.5,1.72,5.84,5.84,0,0,1,1.92,4.36Zm-9.5-4.71a3.11,3.11,0,0,0,.84,2.23,2.94,2.94,0,0,0,2.26.85,3.14,3.14,0,0,0,2.35-.86,3.09,3.09,0,0,0,.92-2.19,2.83,2.83,0,0,0-1-2.22,3.35,3.35,0,0,0-2.31-.85,3,3,0,0,0-2.26.9A3,3,0,0,0,27.09,20.09Z"/><path class="cls-3" d="M41.23,26.16V14.62a5.88,5.88,0,0,1,1.92-4.36,6.25,6.25,0,0,1,4.5-1.72h2.09V8.7L48.5,11.25h-.85a3.56,3.56,0,0,0-2.36.81,3.18,3.18,0,0,0-1,2.56V24.8l-2.94,1.36Z"/><path class="cls-3" d="M56,26.16l-6-16.67,2.83-1.25h.17l4.29,12.44,4.2-12.44h.14l2.46,1.17L58.62,24.84l-2.46,1.32Z"/><path class="cls-3" d="M67.7,5.49a1.79,1.79,0,0,1-.54-1.31,1.79,1.79,0,0,1,.54-1.31,1.85,1.85,0,0,1,2.63,0,1.79,1.79,0,0,1,.54,1.31,1.79,1.79,0,0,1-.54,1.31,1.85,1.85,0,0,1-2.63,0Zm-.24,20.67V9.61L70.4,8.24h.16V24.8l-2.94,1.36Z"/><path class="cls-3" d="M75.51,20.2l2.94-1.37h.15V20a3.23,3.23,0,0,0,1,2.58,3.4,3.4,0,0,0,2.32.84,3.13,3.13,0,0,0,2.46-1,3.3,3.3,0,0,0,.93-2.24,2.47,2.47,0,0,0-1-2.07,3.89,3.89,0,0,0-2.42-.65,7.12,7.12,0,0,1-4.34-1.19,3.7,3.7,0,0,1-1.41-3.2,4.13,4.13,0,0,1,2-3.5,6.51,6.51,0,0,1,3.81-1.08,5.76,5.76,0,0,1,3.79,1.34,4.4,4.4,0,0,1,1.53,2.43l-2.94,1.37h-.15v-.44a2,2,0,0,0-.47-1.35A2.53,2.53,0,0,0,81.57,11a2.41,2.41,0,0,0-1.78.67,2.06,2.06,0,0,0-.69,1.5,1.82,1.82,0,0,0,.83,1.55,4,4,0,0,0,2,.32,6.88,6.88,0,0,1,4.72,1.41,5.08,5.08,0,0,1,1.72,4,5.37,5.37,0,0,1-1.78,3.77,6.26,6.26,0,0,1-4.64,1.7,7,7,0,0,1-4.5-1.46A5.08,5.08,0,0,1,75.51,20.2Z"/></g></svg>